<svg xmlns="http://www.w3.org/2000/svg" width="1668" height="2257" viewBox="0 0 1667.681284 2257.357141" preserveAspectRatio="xMidYMid meet">
<defs>  <linearGradient id="gold" gradientUnits="objectBoundingBox" x1="0" y1="1" x2="1" y2="0">
    <stop offset="0"   stop-color="#9C6A3B"/>
    <stop offset="0.42" stop-color="#C49A4F"/>
    <stop offset="1"   stop-color="#EBDDBA"/>
  </linearGradient></defs>

<g transform="translate(-236.000000,2469.990344) scale(0.100000,-0.100000)" fill="url(#gold)" stroke="none"><path d="M9500 24693 c-381 -62 -846 -162 -1095 -234 -370 -107 -856 -284
-943 -343 -55 -37 -92 -102 -92 -160 0 -38 14 -105 68 -326 11 -47 34 -157 51
-245 37 -195 75 -380 140 -670 28 -121 56 -256 65 -300 15 -80 29 -145 106
-495 23 -102 57 -259 76 -349 19 -91 43 -199 54 -240 20 -81 95 -455 105 -532
23 -164 -129 -289 -267 -218 -47 24 -249 224 -603 598 -827 873 -1571 1645
-1614 1673 -70 47 -170 19 -289 -80 -328 -275 -880 -842 -1095 -1127 -303
-401 -317 -422 -317 -492 0 -85 46 -140 625 -733 143 -147 382 -394 530 -550
149 -155 342 -357 430 -449 454 -472 487 -519 435 -621 -44 -86 -139 -110
-281 -72 -41 11 -101 25 -134 32 -33 7 -134 36 -225 66 -91 29 -262 80 -380
113 -118 33 -341 96 -495 141 -154 44 -431 124 -615 176 -184 53 -405 116
-490 141 -359 106 -378 88 -575 -547 -93 -300 -189 -686 -230 -920 -19 -113
-37 -211 -40 -218 -13 -35 -45 -325 -45 -404 0 -164 39 -202 276 -271 65 -19
227 -67 359 -105 132 -39 323 -94 425 -121 102 -28 275 -77 385 -109 429 -126
628 -183 837 -241 238 -66 299 -92 346 -145 104 -119 30 -246 -175 -294 -48
-12 -149 -36 -223 -52 -74 -17 -351 -86 -615 -152 -474 -119 -529 -132 -775
-184 -69 -15 -170 -40 -226 -55 -56 -16 -168 -44 -250 -63 -353 -81 -381 -116
-340 -426 93 -690 403 -1775 549 -1919 72 -72 132 -76 330 -21 167 47 847 386
1327 662 172 99 210 122 480 288 372 229 961 642 1314 920 94 74 189 148 211
165 22 16 87 70 145 120 58 50 152 130 210 178 58 48 164 141 235 207 72 66
186 171 255 234 345 315 980 985 1260 1331 35 44 101 123 145 175 406 476
1091 1465 1385 2000 35 63 93 167 130 230 37 63 91 159 120 212 92 170 183
249 267 233 62 -11 173 -134 254 -281 75 -135 198 -341 274 -459 29 -45 60
-96 70 -115 52 -103 456 -707 584 -875 42 -55 104 -138 136 -185 33 -47 94
-125 136 -175 41 -49 102 -126 134 -170 59 -81 104 -137 205 -255 31 -36 69
-83 85 -105 16 -22 77 -94 135 -161 58 -66 141 -163 185 -214 246 -289 1065
-1092 1410 -1382 83 -69 188 -161 235 -204 47 -42 153 -128 235 -190 83 -61
231 -176 330 -253 99 -78 218 -167 265 -198 47 -31 110 -75 140 -98 30 -23
111 -80 180 -127 69 -46 168 -114 220 -150 52 -36 129 -84 170 -108 41 -24
107 -65 147 -92 40 -26 109 -70 155 -96 46 -27 144 -84 218 -127 74 -43 182
-104 240 -135 58 -31 185 -103 284 -160 98 -56 235 -129 305 -160 69 -32 210
-98 313 -148 468 -227 702 -260 776 -110 47 95 105 242 138 349 94 310 133
453 148 544 10 55 28 138 42 185 26 91 93 485 129 759 42 319 -13 383 -394
461 -102 21 -217 48 -256 60 -38 12 -126 32 -195 46 -243 46 -427 85 -724 154
-456 105 -516 119 -586 130 -78 14 -263 66 -305 87 -45 23 -103 83 -115 119
-24 73 37 172 139 223 57 29 378 135 571 189 58 16 236 71 395 122 514 163
862 270 995 305 52 13 140 41 195 61 55 20 119 43 143 51 128 44 143 94 104
345 -17 106 -33 216 -37 245 -3 28 -15 77 -26 110 -11 32 -24 96 -30 143 -5
47 -25 135 -44 195 -32 104 -84 326 -100 425 -4 25 -36 116 -71 202 -35 87
-73 196 -85 242 -12 47 -36 113 -55 148 -19 35 -49 95 -68 133 -74 153 -100
154 -532 15 -103 -34 -217 -68 -253 -76 -59 -13 -317 -91 -580 -176 -51 -17
-130 -40 -175 -53 -183 -50 -414 -120 -626 -190 -276 -90 -528 -157 -595 -158
-101 -2 -170 58 -170 148 0 109 77 210 461 605 77 80 163 174 190 210 27 36
103 122 169 191 66 69 201 213 300 320 99 106 250 265 336 354 250 257 475
527 485 581 10 52 -10 93 -99 205 -45 57 -104 134 -130 172 -172 242 -881 991
-1082 1142 -38 29 -101 82 -140 117 -175 163 -189 157 -530 -222 -71 -80 -206
-224 -300 -320 -93 -96 -228 -240 -300 -319 -336 -373 -521 -575 -690 -751
-77 -81 -228 -240 -335 -354 -246 -261 -300 -292 -405 -233 -84 48 -115 131
-90 246 9 42 24 126 35 186 10 61 28 155 40 210 60 287 132 663 145 760 9 61
27 157 40 215 13 58 40 173 59 255 19 83 42 206 51 275 9 69 32 190 50 270 19
80 43 199 54 265 12 66 25 136 31 155 6 19 17 78 26 130 8 52 24 138 35 190
41 192 24 277 -68 344 -85 61 -550 241 -739 286 -45 11 -112 31 -150 45 -85
32 -329 98 -484 130 -63 13 -164 35 -225 49 -131 30 -439 76 -510 76 -149 0
-221 -74 -251 -257 -19 -121 -131 -681 -154 -773 -10 -41 -26 -120 -35 -175
-8 -55 -28 -158 -45 -230 -16 -71 -43 -202 -59 -290 -17 -88 -44 -236 -62
-330 -17 -93 -49 -258 -71 -365 -22 -107 -57 -287 -78 -400 -75 -397 -124
-611 -156 -678 -59 -121 -185 -153 -280 -70 -60 53 -82 123 -134 428 -12 66
-69 328 -115 520 -40 167 -72 330 -79 398 -4 34 -21 110 -37 170 -33 115 -80
337 -99 467 -7 44 -25 117 -40 162 -16 45 -33 117 -40 160 -25 178 -190 956
-227 1077 -18 58 -85 142 -133 167 -33 18 -112 23 -180 12z"/><path d="M10369 14196 c-6 -7 -257 -22 -569 -36 -107 -4 -265 -15 -350 -24
-314 -32 -538 -58 -665 -77 -365 -54 -483 -73 -625 -99 -85 -16 -186 -34 -225
-40 -107 -17 -729 -156 -915 -205 -91 -24 -219 -58 -285 -75 -499 -132 -1335
-425 -1800 -630 -77 -34 -178 -77 -225 -95 -199 -78 -918 -435 -1107 -552
-141 -86 -197 -185 -175 -311 11 -66 31 -105 152 -297 202 -320 313 -495 390
-615 48 -74 135 -211 194 -305 386 -609 381 -607 966 -352 306 133 1298 468
1635 552 50 13 214 54 365 93 151 39 354 87 450 107 96 20 222 47 280 60 58
13 168 33 245 45 77 12 221 35 320 52 285 48 343 56 619 87 417 48 709 74 986
88 178 9 1397 9 1685 0 325 -11 1096 -90 1445 -148 96 -16 238 -38 315 -50 77
-11 156 -24 175 -29 19 -5 71 -14 115 -20 44 -6 116 -21 160 -32 44 -11 179
-40 300 -64 121 -24 256 -55 300 -68 44 -14 188 -52 320 -85 132 -33 274 -72
315 -86 41 -14 118 -36 170 -49 52 -13 154 -47 227 -74 72 -28 149 -54 169
-58 68 -13 707 -242 944 -340 97 -39 148 -43 195 -14 35 22 51 43 195 270 158
247 250 391 325 505 40 61 115 180 168 265 52 85 147 234 211 330 198 297 217
349 177 492 -29 107 -93 173 -246 251 -172 89 -708 343 -786 372 -47 18 -121
51 -165 73 -106 53 -273 121 -430 175 -71 25 -149 54 -174 65 -25 10 -187 67
-360 125 -864 290 -1471 450 -2150 568 -69 12 -150 27 -180 35 -55 13 -142 27
-410 65 -478 67 -728 92 -1170 120 -91 5 -235 15 -320 20 -173 11 -1172 24
-1181 15z"/><path d="M11391 10690 c-290 -61 -552 -264 -675 -525 -162 -340 -110 -729 138
-1031 105 -129 199 -195 398 -283 62 -27 160 -70 218 -96 139 -61 619 -298
795 -393 327 -176 476 -259 575 -322 58 -37 175 -110 260 -162 250 -153 375
-234 545 -351 285 -197 549 -386 653 -468 229 -181 338 -144 542 182 46 74
104 166 130 204 26 39 89 138 139 220 51 83 134 213 185 290 51 77 120 183
153 235 33 52 105 165 160 250 55 85 153 241 218 345 65 105 155 244 199 310
93 137 220 348 241 399 43 101 -25 224 -160 291 -73 36 -290 119 -365 139 -36
10 -146 44 -245 76 -461 150 -1133 328 -1530 404 -358 70 -613 116 -750 136
-77 11 -192 30 -255 40 -64 11 -143 20 -176 20 -33 0 -109 9 -169 20 -60 11
-134 20 -164 20 -31 0 -110 7 -176 16 -237 31 -796 52 -884 34z"/><path d="M8740 10534 c-52 -8 -165 -26 -250 -39 -85 -13 -191 -29 -235 -35
-44 -7 -120 -20 -170 -31 -49 -10 -182 -34 -295 -53 -201 -34 -588 -112 -699
-141 -31 -8 -103 -23 -160 -34 -110 -22 -215 -50 -391 -106 -168 -53 -266 -82
-400 -119 -148 -40 -310 -98 -550 -197 -96 -39 -223 -89 -282 -109 -122 -43
-173 -78 -199 -135 -43 -94 -21 -155 161 -440 46 -71 115 -182 155 -245 39
-63 143 -225 229 -360 244 -377 339 -527 399 -625 29 -49 115 -182 189 -295
74 -113 158 -245 188 -295 30 -49 122 -196 205 -325 83 -129 169 -264 190
-300 22 -36 73 -117 115 -181 41 -63 118 -183 170 -267 52 -84 147 -232 210
-330 63 -99 167 -261 230 -361 153 -242 379 -595 483 -756 81 -126 272 -429
405 -645 35 -58 130 -205 211 -327 153 -233 189 -287 337 -523 340 -542 367
-581 490 -700 271 -263 536 -385 920 -425 787 -83 1507 468 1651 1264 71 389
1 706 -248 1117 -39 65 -126 211 -192 324 -177 302 -355 572 -644 977 -248
347 -555 747 -683 888 -45 50 -103 117 -128 150 -52 68 -169 203 -304 352 -51
56 -145 159 -210 230 -145 160 -589 599 -806 797 -208 190 -308 316 -380 482
-231 530 -99 1215 306 1581 152 138 172 160 172 192 0 56 -45 67 -190 45z"/></g>
</svg>