<?xml version="1.0" encoding="UTF-8"?>
<svg width="1020.55" height="1366.47" id="Capa_1" data-name="Capa 1" xmlns="http://www.w3.org/2000/svg" viewBox="0 0 1020.55 1366.47">
  <defs>
    <style>
      .cls-1 {
        fill: #cdaa6e;
      }
    </style>
  </defs>
  <path class="cls-1" d="M1010.04,556.38l-143.38-31.97c-10.55-2.35-11.12-17.27-.78-20.43l143.87-43.96c4.89-1.49,8.07-6.33,7.44-11.43-5.44-43.94-16.35-86.16-32.09-125.94-2.02-5.09-7.65-7.74-12.86-6.15l-154.36,47.16c-10.27,3.14-18.06-9.4-10.75-17.31l114.48-123.95c3.43-3.71,3.81-9.4.83-13.48-26.32-36.09-57.21-68.57-91.8-96.64-4.29-3.48-10.57-2.96-14.32,1.1l-126.29,136.74c-7.2,7.8-20.05,1.21-18.01-9.24l37.68-192.4c.97-4.95-1.64-9.97-6.29-11.88-34.27-14.14-70.36-24.72-107.88-31.1-7.96-1.36-15.99-2.47-24.07-3.42-5.42-.64-10.41,3.09-11.47,8.48l-40.06,204.58c-2.21,11.27-18.19,11.41-20.58.17L455.79,10.82c-1.14-5.33-6.12-8.96-11.5-8.29-7.79.96-15.54,2.08-23.22,3.42-37.75,6.62-74.02,17.49-108.44,31.96-4.67,1.96-7.25,7.05-6.19,12.03l41.24,193.66c2.22,10.41-10.53,17.21-17.85,9.53L199.13,116.22c-3.79-3.98-10.04-4.41-14.28-.91-34.31,28.37-64.88,61.13-90.86,97.45-2.96,4.14-2.5,9.85,1.01,13.53l119.34,125c7.43,7.78-.15,20.45-10.47,17.48l-159.57-45.87c-5.23-1.5-10.8,1.22-12.75,6.33-15.2,39.96-25.64,82.28-30.51,126.32-.57,5.12,2.7,9.92,7.62,11.34l149.51,42.98c10.39,2.99,10.07,17.91-.44,20.44l-147.79,35.54c-5.2,1.25-8.72,6.25-8.05,11.59,5.45,43.82,16.41,85.9,32.1,125.58,1.93,4.87,7.19,7.55,12.26,6.33l14.43-3.47c.71-.17,1.4-.41,2.06-.71,187.83-86.82,342.26-234.19,438.19-417.48,3.95-7.55,14.52-7.62,18.57-.13,97,179.26,250.33,323.17,435.97,408.06.7.32,1.43.57,2.18.73l18.74,4.18c5.1,1.14,10.32-1.63,12.16-6.55,14.96-39.94,25.09-82.21,29.73-126.17.56-5.34-3.03-10.27-8.24-11.43Z"/>
  <path class="cls-1" d="M935.47,769.77c-1.93-.7-3.87-1.39-5.82-2.06-83.94-30.43-173.31-48.96-266.46-53.9h-.09c-2.45-.18-5-.26-7.45-.44-2.36.03-6.99-.12-9.28.19-87.66,1.48-187.57,50.06-187.57,121.47,0,35.82,68.25,102.77,112,158.57,7.18,9.54,14.5,19.05,21.85,28.35.12.16.24.32.37.48.16.22.35.41.51.63,23.94,30.26,48,58.13,67.6,76.71,0,0,33.89,34.02,73.5,36.24,4.7.7,9.59-1.24,12.37-5.57l194.79-341.82c4.39-6.86,1.3-16.06-6.32-18.84Z"/>
  <path class="cls-1" d="M311.05,873.12l-3.23-5.87c-14.12-14.64-27.52-45.34-28.14-67.22v-2.38c0-2.38.09-4.76.26-7.15.7-7.85,2.37-15.35,5-22.49,7.89-21.08,23.94-38.2,44.29-47.46.44-.18.88-.35,1.31-.53,3.42-1.5,6.93-2.73,10.61-3.79-58.85,5.73-116.13,17.03-171.3,33.35-2.37.62-4.74,1.32-7.1,2.03-19.74,6-39.21,12.61-58.42,19.85-4.32,1.62-10.51,4.07-16.03,6.29-6.55,2.63-9.08,10.59-5.29,16.57l331.45,516.92,11.42,17.96c.28.44.58.86.91,1.26,2.06,2.52,4.26,4.96,6.62,7.25,16.84,16.58,39.82,26.73,65.17,26.73,50.69,0,92.01-40.76,93.41-91.48v-2.65c0-2.73-.09-5.38-.35-7.94-.88-11.56-3.95-22.5-8.68-32.46-2.11-3.97-272.79-358.76-275.16-362.64"/>
</svg>