<?xml version="1.0" encoding="UTF-8"?>
<svg width="1446.64" height="491.23" id="Capa_1" data-name="Capa 1" xmlns="http://www.w3.org/2000/svg" viewBox="0 0 1446.64 491.23">
  <defs>
    <style>
      .cls-1 {
        fill: #cdaa6e;
      }

      .cls-2 {
        fill: #003353;
      }

      .cls-3 {
        fill: #f1ede5;
      }
    </style>
  </defs>
  
  <g>
    <g>
      <g>
        <path class="cls-3" d="M866.13,381.12l8.41-43.45h3.16l12.16,31.96,12.1-31.96h3.17l8.44,43.45h-4.44l-6.42-33.24-11.48,30.38h-2.79l-11.48-30.38-6.43,33.24h-4.41Z"/>
        <path class="cls-3" d="M942.51,350.08h4.34v31.03h-4.34l-.16-5.77c-1.01,1.97-2.43,3.56-4.25,4.76-1.82,1.21-3.99,1.82-6.52,1.82-2.28,0-4.41-.43-6.39-1.29-1.99-.86-3.73-2.04-5.24-3.55-1.51-1.51-2.69-3.26-3.54-5.24-.85-1.99-1.27-4.12-1.27-6.39s.42-4.34,1.26-6.3c.84-1.97,2-3.69,3.48-5.18,1.48-1.49,3.2-2.65,5.15-3.49s4.05-1.26,6.28-1.26c2.59,0,4.84.62,6.76,1.85,1.93,1.23,3.46,2.84,4.59,4.83l-.15-5.81ZM931.49,377.7c2.21,0,4.12-.54,5.71-1.63,1.59-1.09,2.82-2.55,3.68-4.39.86-1.84,1.29-3.87,1.29-6.08s-.43-4.33-1.3-6.16-2.1-3.28-3.69-4.36c-1.59-1.08-3.49-1.61-5.68-1.61s-4.2.54-6.01,1.63c-1.81,1.08-3.25,2.55-4.31,4.39-1.07,1.84-1.6,3.88-1.6,6.11s.55,4.3,1.64,6.13c1.1,1.83,2.55,3.28,4.36,4.36,1.81,1.08,3.78,1.61,5.91,1.61Z"/>
        <path class="cls-3" d="M951.51,381.12v-31.03h4.35v4.28c1.1-1.57,2.52-2.83,4.28-3.75,1.76-.93,3.67-1.4,5.74-1.4,1.2,0,2.36.15,3.48.47l-1.77,4.31c-.87-.27-1.72-.4-2.55-.4-1.68,0-3.21.42-4.61,1.24-1.4.83-2.51,1.94-3.34,3.32-.83,1.39-1.24,2.93-1.24,4.63v18.34h-4.35Z"/>
        <path class="cls-3" d="M995.67,381.12h-5l-8.69-14.99-6.21,7.42v7.57h-4.35v-46.55h4.35v32.21l14-16.7h5.68l-10.52,12.51,10.74,18.53Z"/>
        <path class="cls-3" d="M1002.15,344.65c-.7,0-1.3-.23-1.78-.7-.49-.47-.73-1.05-.73-1.75s.24-1.29.73-1.75c.48-.47,1.08-.7,1.78-.7s1.27.23,1.75.7c.49.47.73,1.05.73,1.75s-.24,1.29-.71,1.75c-.48.47-1.07.7-1.77.7ZM999.95,350.08h4.35v31.03h-4.35v-31.03Z"/>
        <path class="cls-3" d="M1037.16,361.91v19.21h-4.34v-18.34c0-1.7-.42-3.24-1.24-4.63-.83-1.38-1.94-2.49-3.32-3.32-1.39-.83-2.93-1.24-4.63-1.24s-3.21.42-4.61,1.24c-1.4.83-2.51,1.94-3.34,3.32-.83,1.39-1.24,2.93-1.24,4.63v18.34h-4.35v-31.03h4.35v4.28c1.1-1.57,2.52-2.83,4.28-3.75,1.76-.93,3.67-1.4,5.74-1.4,2.34,0,4.47.57,6.39,1.71,1.92,1.14,3.45,2.67,4.59,4.59,1.14,1.92,1.71,4.06,1.71,6.39Z"/>
        <path class="cls-3" d="M1065.87,350.08h4.34v32.18c0,1.99-.43,3.85-1.29,5.59-.86,1.74-2.02,3.26-3.48,4.58-1.46,1.31-3.12,2.34-4.98,3.09-1.86.75-3.79,1.12-5.8,1.12-2.15,0-4.23-.49-6.24-1.48-2.01-.98-3.75-2.29-5.23-3.93-1.48-1.64-2.53-3.44-3.15-5.43l4.01-1.83c.39,1.55,1.13,2.95,2.22,4.2,1.09,1.25,2.37,2.24,3.85,2.98,1.48.73,2.99,1.1,4.55,1.1,1.43,0,2.81-.26,4.14-.79,1.33-.53,2.53-1.25,3.6-2.15,1.07-.91,1.91-1.97,2.53-3.18.62-1.21.93-2.5.93-3.86v-6.86c-1.08,1.94-2.53,3.52-4.36,4.72-1.83,1.2-3.96,1.8-6.38,1.8-2.17,0-4.22-.42-6.13-1.27-1.91-.85-3.6-2.02-5.04-3.52-1.45-1.5-2.58-3.23-3.4-5.2-.82-1.97-1.23-4.08-1.23-6.33s.41-4.37,1.23-6.35c.81-1.98,1.95-3.71,3.4-5.21,1.45-1.5,3.13-2.67,5.04-3.52,1.91-.85,3.96-1.27,6.13-1.27,2.42,0,4.55.59,6.38,1.78,1.83,1.19,3.28,2.77,4.36,4.73v-5.68ZM1055.16,377.7c2.15,0,4.01-.56,5.57-1.68,1.56-1.12,2.77-2.6,3.62-4.44.85-1.84,1.27-3.84,1.27-5.99s-.43-4.23-1.29-6.07c-.86-1.83-2.07-3.3-3.65-4.41-1.57-1.11-3.41-1.66-5.52-1.66s-4.03.54-5.76,1.63c-1.73,1.08-3.1,2.55-4.11,4.39-1.01,1.84-1.52,3.88-1.52,6.11s.52,4.27,1.55,6.1c1.04,1.83,2.42,3.29,4.14,4.38,1.73,1.09,3.63,1.63,5.7,1.63Z"/>
        <path class="cls-3" d="M1105.31,354.43h-7.42l-.03,26.69h-4.35l.03-26.69h-5.62v-4.35h5.62l-.03-9.74h4.35l.03,9.74h7.42v4.35Z"/>
        <path class="cls-3" d="M1136.37,361.91v19.21h-4.34v-18.34c0-1.7-.42-3.24-1.24-4.63-.83-1.38-1.94-2.49-3.32-3.32-1.39-.83-2.93-1.24-4.63-1.24s-3.21.42-4.61,1.24c-1.4.83-2.51,1.94-3.34,3.32-.83,1.39-1.24,2.93-1.24,4.63v18.34h-4.35v-46.55h4.35v19.8c1.1-1.57,2.52-2.83,4.28-3.75,1.76-.93,3.67-1.4,5.74-1.4,2.34,0,4.47.57,6.39,1.71,1.92,1.14,3.45,2.67,4.59,4.59,1.14,1.92,1.71,4.06,1.71,6.39Z"/>
        <path class="cls-3" d="M1154.06,381.92c-2.85,0-5.46-.73-7.81-2.2-2.35-1.47-4.22-3.44-5.62-5.91-1.4-2.47-2.1-5.21-2.1-8.21,0-2.27.4-4.4,1.21-6.38.81-1.97,1.92-3.71,3.33-5.21,1.42-1.5,3.07-2.67,4.95-3.52s3.89-1.27,6.02-1.27c2.3,0,4.41.46,6.35,1.37,1.93.91,3.6,2.18,5,3.82,1.4,1.64,2.45,3.55,3.17,5.74.71,2.19,1.01,4.56.88,7.11h-26.32c.25,1.97.87,3.72,1.88,5.28,1,1.55,2.28,2.78,3.85,3.68,1.56.9,3.29,1.36,5.2,1.38,2.07,0,3.94-.54,5.6-1.61,1.67-1.08,3.01-2.56,4.02-4.44l4.4,1.03c-1.24,2.75-3.11,5-5.62,6.75-2.5,1.75-5.31,2.62-8.41,2.62ZM1143.01,363.74h22.07c-.14-1.92-.73-3.69-1.75-5.29-1.03-1.6-2.34-2.89-3.96-3.85-1.61-.96-3.38-1.44-5.31-1.44s-3.68.47-5.28,1.41c-1.59.94-2.9,2.22-3.91,3.82-1.01,1.6-1.64,3.39-1.86,5.35Z"/>
        <path class="cls-3" d="M1202.88,381.12h-7.51l-10.36-31.03h7.42l6.73,20.08,6.7-20.08h7.48l6.7,20.08,6.73-20.08h7.42l-10.36,31.03h-7.51l-6.73-20.17-6.7,20.17Z"/>
        <path class="cls-3" d="M1259.42,350.08h7.57v31.03h-7.57l-.34-3.85c-.85,1.39-1.97,2.51-3.37,3.37-1.4.86-3.05,1.29-4.95,1.29-2.3,0-4.45-.43-6.46-1.3-2.01-.87-3.77-2.07-5.29-3.6-1.52-1.53-2.71-3.3-3.57-5.31-.86-2.01-1.29-4.16-1.29-6.46s.41-4.29,1.23-6.24c.81-1.94,1.96-3.65,3.43-5.12,1.47-1.47,3.17-2.62,5.09-3.45,1.93-.83,3.99-1.24,6.21-1.24,2.05,0,3.89.46,5.51,1.37,1.62.91,3,2.07,4.14,3.48l-.34-3.97ZM1250.57,374.63c1.61,0,3.04-.4,4.28-1.21,1.24-.81,2.21-1.9,2.92-3.28.7-1.37,1.05-2.89,1.05-4.55s-.35-3.2-1.05-4.58c-.71-1.37-1.68-2.47-2.93-3.27-1.25-.81-2.67-1.21-4.27-1.21s-3.05.41-4.36,1.23c-1.32.82-2.36,1.91-3.13,3.27-.78,1.37-1.16,2.89-1.16,4.56s.39,3.2,1.18,4.56c.79,1.37,1.84,2.45,3.15,3.26,1.32.81,2.76,1.21,4.33,1.21Z"/>
        <path class="cls-3" d="M1291.26,350.08h8.04l-16.97,46.55h-8.04l5.62-15.52-11.17-31.03h8.29l6.67,20.67,7.57-20.67Z"/>
        <path class="cls-3" d="M1333.81,349.21c3.02,0,5.77.73,8.26,2.2,2.48,1.47,4.46,3.44,5.93,5.91,1.47,2.47,2.2,5.21,2.2,8.21,0,2.26-.42,4.38-1.27,6.36-.85,1.99-2.02,3.73-3.52,5.23-1.5,1.5-3.24,2.67-5.21,3.52-1.98.85-4.1,1.27-6.38,1.27-1.94,0-3.67-.44-5.17-1.32-1.5-.88-2.76-2.02-3.77-3.43v3.94h-7.57v-46.55h7.57v19.39c1.01-1.41,2.27-2.55,3.77-3.43,1.5-.88,3.22-1.32,5.17-1.32ZM1333.71,374.6c1.61,0,3.08-.41,4.39-1.23,1.31-.81,2.36-1.91,3.15-3.27.79-1.37,1.18-2.89,1.18-4.56s-.39-3.17-1.18-4.55c-.79-1.38-1.84-2.47-3.17-3.28-1.32-.81-2.78-1.21-4.38-1.21s-2.98.41-4.22,1.22-2.21,1.91-2.92,3.29c-.7,1.38-1.05,2.88-1.05,4.52s.35,3.2,1.05,4.58c.7,1.38,1.68,2.47,2.92,3.27s2.65,1.21,4.22,1.21Z"/>
        <path class="cls-3" d="M1377,350.08h7.57v31.03h-7.57l-.34-3.85c-.85,1.39-1.97,2.51-3.37,3.37-1.4.86-3.05,1.29-4.95,1.29-2.3,0-4.45-.43-6.46-1.3-2.01-.87-3.77-2.07-5.29-3.6-1.52-1.53-2.71-3.3-3.57-5.31-.86-2.01-1.29-4.16-1.29-6.46s.41-4.29,1.23-6.24c.81-1.94,1.96-3.65,3.43-5.12,1.47-1.47,3.17-2.62,5.09-3.45,1.93-.83,3.99-1.24,6.21-1.24,2.05,0,3.89.46,5.51,1.37,1.62.91,3,2.07,4.14,3.48l-.34-3.97ZM1368.16,374.63c1.61,0,3.04-.4,4.28-1.21,1.24-.81,2.21-1.9,2.92-3.28.7-1.37,1.05-2.89,1.05-4.55s-.35-3.2-1.05-4.58c-.71-1.37-1.68-2.47-2.93-3.27-1.25-.81-2.67-1.21-4.27-1.21s-3.05.41-4.36,1.23c-1.32.82-2.36,1.91-3.13,3.27-.78,1.37-1.16,2.89-1.16,4.56s.39,3.2,1.18,4.56c.79,1.37,1.84,2.45,3.15,3.26,1.32.81,2.76,1.21,4.33,1.21Z"/>
        <path class="cls-3" d="M1407.86,371.77l6.83,3.69c-1.43,1.94-3.22,3.51-5.37,4.69-2.15,1.18-4.5,1.77-7.04,1.77-2.85,0-5.46-.73-7.81-2.2-2.35-1.47-4.22-3.44-5.62-5.91-1.4-2.47-2.1-5.21-2.1-8.21,0-2.27.4-4.4,1.21-6.38.81-1.97,1.92-3.71,3.33-5.21,1.42-1.5,3.07-2.67,4.95-3.52,1.88-.85,3.89-1.27,6.02-1.27,2.55,0,4.89.59,7.04,1.77,2.15,1.18,3.94,2.76,5.37,4.75l-6.83,3.66c-.72-.83-1.58-1.47-2.56-1.93-.98-.46-1.99-.68-3.03-.68-1.49,0-2.83.41-4.03,1.22-1.2.82-2.15,1.89-2.85,3.23-.7,1.33-1.05,2.79-1.05,4.36s.35,3,1.05,4.33c.7,1.33,1.65,2.4,2.85,3.21,1.2.81,2.55,1.21,4.03,1.21,1.08,0,2.1-.23,3.07-.7.97-.46,1.81-1.09,2.51-1.88Z"/>
        <path class="cls-3" d="M1445.47,381.12h-8.72l-7.08-12.2-4.34,5.18v7.01h-7.57v-46.55h7.57v27.78l10.27-12.26h9.9l-10.64,12.69,10.61,18.34Z"/>
      </g>
      <g>
        <path class="cls-3" d="M480.78,135.56v4.86c-3.88.32-6.64,1.26-8.26,2.79-1.62,1.54-2.39,3.73-2.31,6.56.08,2.84.85,6.52,2.31,11.06l37.66,112.5-6.32,7.05,33.05-102.78,3.64,6.07-39.61,124.9h-8.26l-52.49-152.6c-2.1-6.15-4.7-10.24-7.77-12.27-3.08-2.02-5.91-3.12-8.5-3.28v-4.86c3.88.16,8.5.32,13.85.48,5.34.16,10.53.24,15.55.24,5.83,0,11.14-.08,15.92-.24,4.77-.16,8.62-.32,11.54-.48ZM651.85,135.56v4.86c-3.24.81-6.72,2.96-10.45,6.44-3.72,3.48-6.88,9.27-9.47,17.37l-44.71,144.33h-8.26l-51.51-153.33c-1.94-5.99-4.17-9.92-6.68-11.78-2.51-1.86-4.9-2.87-7.17-3.04v-4.86c3.4.16,7.61.32,12.64.48,5.02.16,9.88.24,14.58.24,6.64,0,12.83-.08,18.59-.24,5.74-.16,10.32-.32,13.73-.48v4.86c-4.86.16-8.71.69-11.54,1.58-2.83.89-4.46,2.71-4.86,5.47-.4,2.75.36,7.21,2.31,13.36l35.72,109.83-4.13,5.35,30.61-96.47c3.24-10.04,4.74-17.86,4.49-23.45-.24-5.59-2.1-9.55-5.58-11.91-3.48-2.34-8.55-3.6-15.19-3.76v-4.86c4.86.16,9.72.32,14.58.48,4.86.16,9.56.24,14.09.24,4.05,0,7.49-.08,10.33-.24,2.83-.16,5.46-.32,7.89-.48Z"/>
        <path class="cls-3" d="M663.75,309.29c-6.8,0-12.63-1.3-17.49-3.89-4.86-2.59-8.5-6.15-10.93-10.69-2.43-4.53-3.64-9.72-3.64-15.55,0-7.13,1.61-12.92,4.86-17.37,3.24-4.45,7.41-8.06,12.51-10.81,5.1-2.75,10.53-5.06,16.28-6.92,5.75-1.86,11.18-3.64,16.28-5.34,5.1-1.7,9.31-3.68,12.63-5.95,3.32-2.27,4.98-5.26,4.98-8.99v-16.52c0-5.83-.93-10.49-2.79-13.97-1.86-3.48-4.37-5.95-7.53-7.41-3.16-1.46-6.92-2.18-11.3-2.18-3.72,0-7.69.53-11.9,1.58-4.21,1.06-7.53,3.12-9.96,6.2,3.56.97,6.52,2.88,8.87,5.71,2.35,2.84,3.52,6.36,3.52,10.57,0,4.54-1.5,8.1-4.49,10.69-3,2.59-6.76,3.89-11.3,3.89-5.02,0-8.75-1.58-11.18-4.74-2.43-3.16-3.64-6.84-3.64-11.06s1.09-7.93,3.28-10.69c2.19-2.75,5.06-5.35,8.63-7.78,3.88-2.59,8.87-4.77,14.94-6.56,6.07-1.78,12.83-2.67,20.29-2.67,6.96,0,13,.77,18.1,2.31,5.1,1.54,9.36,4.01,12.76,7.41,4.05,3.73,6.72,8.38,8.02,13.97,1.29,5.59,1.94,12.35,1.94,20.29v67.06c0,4.05.52,6.93,1.58,8.63,1.05,1.7,2.79,2.55,5.22,2.55,1.62,0,3.2-.4,4.74-1.21,1.54-.81,3.36-2.02,5.47-3.64l2.43,4.13c-3.4,2.76-6.85,4.94-10.33,6.56-3.48,1.62-7.89,2.43-13.24,2.43s-9.39-.81-12.63-2.43c-3.24-1.62-5.63-3.97-7.17-7.04-1.54-3.08-2.3-6.88-2.3-11.42-4.21,6.8-9.23,11.99-15.06,15.55-5.83,3.56-12.64,5.34-20.41,5.34ZM675.41,297.63c4.53,0,8.78-1.29,12.75-3.89,3.97-2.59,7.65-6.48,11.06-11.66v-48.35c-1.78,2.59-4.37,4.82-7.77,6.68-3.4,1.86-7.05,3.77-10.93,5.71-3.89,1.94-7.57,4.17-11.06,6.68-3.48,2.51-6.36,5.71-8.62,9.6-2.27,3.89-3.4,8.83-3.4,14.82,0,6.32,1.61,11.3,4.86,14.94,3.23,3.64,7.61,5.47,13.12,5.47Z"/>
        <path class="cls-3" d="M860.57,182.21v4.86c-3.08.49-5.91,2.07-8.5,4.74-2.59,2.67-5.1,7.25-7.53,13.73l-37.9,101.57-5.83,5.83-47.38-112.02c-3.08-6.32-6.03-10.16-8.87-11.54-2.83-1.37-5.22-2.06-7.16-2.06v-5.1c4.04.49,8.34.85,12.87,1.09,4.53.24,9.23.36,14.09.36,5.5,0,11.06-.16,16.64-.49,5.59-.32,10.81-.64,15.67-.97v5.1c-3.89,0-7.33.28-10.32.85-3,.57-4.94,2.11-5.83,4.62-.89,2.51-.12,6.76,2.31,12.76l30.13,74.11-1.7.73,24.54-65.12c2.43-6.48,3.4-11.7,2.91-15.67-.48-3.97-2.18-6.96-5.1-8.99-2.91-2.02-7.21-3.2-12.88-3.52v-4.86c2.75.16,5.3.28,7.65.36,2.35.08,4.65.16,6.93.24,2.26.08,4.53.12,6.8.12,3.56,0,6.92-.08,10.08-.24,3.16-.16,5.95-.32,8.38-.49ZM806.63,307.11l-8.75,22.84c-1.62,4.05-3.28,7.45-4.98,10.21-1.7,2.75-3.52,5.02-5.47,6.8-2.43,2.26-5.43,3.89-8.99,4.86-3.56.97-7.13,1.46-10.69,1.46s-6.6-.61-9.6-1.82c-3-1.21-5.47-3.04-7.41-5.47-1.94-2.43-2.92-5.43-2.92-8.99,0-4.21,1.37-7.61,4.13-10.2,2.75-2.59,6.39-3.89,10.93-3.89,4.04,0,7.44,1.09,10.2,3.28,2.75,2.19,4.13,5.38,4.13,9.6,0,2.92-.77,5.43-2.31,7.53-1.54,2.1-3.52,3.72-5.95,4.86.48.16.97.24,1.45.24h1.21c4.53,0,8.58-1.5,12.15-4.49,3.56-3,6.56-7.82,8.99-14.46l8.75-23.33,5.1.97Z"/>
        <path class="cls-3" d="M952.17,178.81c6.15,0,11.33.85,15.55,2.55,4.21,1.7,7.61,4.01,10.2,6.92,2.92,3.08,4.94,7.17,6.07,12.27s1.7,11.54,1.7,19.32v65.12c0,6.8,1.29,11.42,3.88,13.85,2.59,2.43,6.96,3.64,13.12,3.64v5.1c-2.76-.16-7.01-.36-12.76-.61-5.75-.24-11.38-.36-16.89-.36s-10.89.12-16.16.36c-5.26.24-9.27.45-12.02.61v-5.1c5.34,0,9.11-1.21,11.3-3.64,2.18-2.43,3.28-7.05,3.28-13.85v-71.92c0-4.7-.33-8.95-.97-12.76-.65-3.8-2.14-6.88-4.49-9.23-2.35-2.34-6.03-3.52-11.05-3.52-5.67,0-10.73,1.7-15.19,5.1-4.45,3.4-8.01,8.06-10.69,13.97-2.67,5.91-4.01,12.51-4.01,19.8v58.56c0,6.8,1.13,11.42,3.4,13.85,2.27,2.43,5.99,3.64,11.18,3.64v5.1c-2.59-.16-6.48-.36-11.66-.61-5.18-.24-10.53-.36-16.03-.36s-11.26.12-17.25.36c-5.99.24-10.45.45-13.36.61v-5.1c6.32,0,10.81-1.21,13.48-3.64,2.67-2.43,4.01-7.05,4.01-13.85v-76.3c0-7.29-1.21-12.67-3.64-16.16-2.43-3.48-7.04-5.22-13.85-5.22v-5.1c5.18.49,10.2.73,15.06.73,5.5,0,10.65-.28,15.43-.85,4.78-.57,9.19-1.42,13.24-2.55v26.49c4.21-9.72,9.84-16.68,16.89-20.9,7.04-4.21,14.45-6.32,22.23-6.32ZM1025.31,178.81c6.15,0,11.34.85,15.55,2.55,4.21,1.7,7.61,4.01,10.2,6.92,2.91,3.08,4.94,7.17,6.07,12.27,1.13,5.1,1.7,11.54,1.7,19.32v65.12c0,6.8,1.34,11.42,4.01,13.85,2.67,2.43,7.17,3.64,13.49,3.64v5.1c-2.76-.16-7.05-.36-12.88-.61-5.83-.24-11.58-.36-17.25-.36s-10.89.12-16.16.36c-5.26.24-9.27.45-12.03.61v-5.1c5.35,0,9.11-1.21,11.3-3.64,2.19-2.43,3.28-7.05,3.28-13.85v-71.92c0-4.7-.32-8.95-.97-12.76-.65-3.8-2.18-6.88-4.61-9.23-2.43-2.34-6.24-3.52-11.42-3.52-5.67,0-10.73,1.74-15.18,5.22-4.46,3.48-8.02,8.18-10.69,14.09-2.67,5.91-4,12.51-4,19.8l-.97-20.17c4.37-10.69,10.24-17.98,17.62-21.87,7.37-3.89,15.02-5.83,22.96-5.83Z"/>
        <path class="cls-3" d="M1115.94,309.29c-6.8,0-12.63-1.3-17.49-3.89-4.86-2.59-8.5-6.15-10.93-10.69-2.43-4.53-3.64-9.72-3.64-15.55,0-7.13,1.61-12.92,4.86-17.37,3.24-4.45,7.41-8.06,12.51-10.81,5.1-2.75,10.53-5.06,16.28-6.92,5.75-1.86,11.18-3.64,16.28-5.34,5.1-1.7,9.31-3.68,12.63-5.95,3.32-2.27,4.98-5.26,4.98-8.99v-16.52c0-5.83-.93-10.49-2.79-13.97-1.86-3.48-4.37-5.95-7.53-7.41-3.16-1.46-6.92-2.18-11.3-2.18-3.72,0-7.69.53-11.9,1.58-4.21,1.06-7.53,3.12-9.96,6.2,3.56.97,6.52,2.88,8.87,5.71,2.35,2.84,3.52,6.36,3.52,10.57,0,4.54-1.5,8.1-4.49,10.69-3,2.59-6.76,3.89-11.3,3.89-5.02,0-8.75-1.58-11.18-4.74-2.43-3.16-3.64-6.84-3.64-11.06s1.09-7.93,3.28-10.69c2.19-2.75,5.06-5.35,8.63-7.78,3.88-2.59,8.87-4.77,14.94-6.56,6.07-1.78,12.83-2.67,20.29-2.67,6.96,0,13,.77,18.1,2.31,5.1,1.54,9.36,4.01,12.76,7.41,4.05,3.73,6.72,8.38,8.02,13.97,1.29,5.59,1.94,12.35,1.94,20.29v67.06c0,4.05.52,6.93,1.58,8.63,1.05,1.7,2.79,2.55,5.22,2.55,1.62,0,3.2-.4,4.74-1.21,1.54-.81,3.36-2.02,5.47-3.64l2.43,4.13c-3.4,2.76-6.85,4.94-10.33,6.56-3.48,1.62-7.89,2.43-13.24,2.43s-9.39-.81-12.63-2.43c-3.24-1.62-5.63-3.97-7.17-7.04-1.54-3.08-2.3-6.88-2.3-11.42-4.21,6.8-9.23,11.99-15.06,15.55-5.83,3.56-12.64,5.34-20.41,5.34ZM1127.61,297.63c4.53,0,8.78-1.29,12.75-3.89,3.97-2.59,7.65-6.48,11.06-11.66v-48.35c-1.78,2.59-4.37,4.82-7.77,6.68-3.4,1.86-7.05,3.77-10.93,5.71-3.89,1.94-7.57,4.17-11.06,6.68-3.48,2.51-6.36,5.71-8.62,9.6-2.27,3.89-3.4,8.83-3.4,14.82,0,6.32,1.61,11.3,4.86,14.94,3.23,3.64,7.61,5.47,13.12,5.47Z"/>
        <path class="cls-3" d="M1287.49,178.81c4.69,0,8.7.97,12.03,2.91,3.31,1.94,5.83,4.41,7.53,7.41,1.7,3,2.55,6.36,2.55,10.08,0,4.7-1.42,8.71-4.25,12.03-2.83,3.32-6.6,4.98-11.3,4.98-4.05,0-7.49-1.21-10.33-3.64-2.83-2.43-4.25-5.75-4.25-9.96,0-3.56.93-6.6,2.79-9.11,1.86-2.51,4.01-4.49,6.44-5.95-1.62-1.29-3.56-1.86-5.83-1.7-4.37.16-8.42,1.58-12.15,4.25-3.72,2.67-6.88,6.07-9.47,10.21-2.59,4.13-4.61,8.55-6.07,13.24-1.46,4.7-2.18,9.07-2.18,13.12v55.89c0,7.94,2.18,13.24,6.56,15.92,4.37,2.67,10.45,4.01,18.22,4.01v5.1c-3.73-.16-9.03-.36-15.92-.61-6.88-.24-14.13-.36-21.74-.36-5.83,0-11.66.12-17.5.36-5.83.24-10.28.45-13.36.61v-5.1c6.32,0,10.81-1.21,13.49-3.64,2.67-2.43,4.01-7.05,4.01-13.85v-76.3c0-7.29-1.21-12.67-3.64-16.16-2.43-3.48-7.05-5.22-13.85-5.22v-5.1c5.18.49,10.21.73,15.07.73,5.5,0,10.65-.28,15.43-.85,4.77-.57,9.19-1.42,13.24-2.55v27.94c1.94-4.69,4.53-9.23,7.77-13.61,3.24-4.37,7.12-7.98,11.66-10.81,4.53-2.83,9.55-4.25,15.06-4.25Z"/>
        <path class="cls-3" d="M1355.77,117.09v167.9c0,6.8,1.17,11.42,3.52,13.85,2.34,2.43,6.35,3.64,12.03,3.64v5.1c-2.76-.16-6.84-.36-12.27-.61-5.42-.24-10.89-.36-16.4-.36s-11.46.12-17.37.36c-5.91.24-10.33.45-13.24.61v-5.1c6.32,0,10.81-1.21,13.49-3.64,2.67-2.43,4-7.05,4-13.85v-138.74c0-7.29-1.25-12.67-3.76-16.16-2.51-3.48-7.09-5.22-13.73-5.22v-5.1c5.18.48,10.2.73,15.06.73,5.35,0,10.45-.28,15.31-.85,4.86-.56,9.31-1.41,13.36-2.55ZM1433.52,182.21v4.86c-4.37.65-8.58,2.11-12.63,4.37-4.05,2.27-8.02,5.43-11.9,9.48l-29.16,30.62,3.16-6.07,43.98,64.39c2.43,3.4,4.78,6.2,7.05,8.38,2.26,2.19,5.1,3.61,8.5,4.25v5.1c-2.11-.16-5.22-.36-9.35-.61-4.13-.24-8.22-.36-12.27-.36-5.34,0-10.77.12-16.28.36-5.51.24-9.56.45-12.15.61v-5.1c3.24,0,5.47-.81,6.68-2.43,1.21-1.62,1.01-3.56-.61-5.83l-26.73-41.8c-2.75-3.89-5.26-6.4-7.53-7.53-2.27-1.13-5.51-1.78-9.72-1.94v-4.86c4.7-.49,8.54-1.37,11.54-2.67,2.99-1.29,5.79-3.4,8.38-6.32l18.22-18.47c5.18-5.18,7.77-9.51,7.77-13s-1.66-6.07-4.98-7.78c-3.32-1.7-7.74-2.63-13.24-2.79v-4.86c4.37.16,9.19.36,14.46.61,5.26.24,9.67.36,13.24.36,2.91,0,5.87-.04,8.87-.12,2.99-.08,5.79-.2,8.38-.36,2.59-.16,4.69-.32,6.31-.49Z"/>
      </g>
    </g>
    <g>
      <path class="cls-1" d="M361.68,200.3l-51.23-11.42c-3.77-.84-3.97-6.17-.28-7.3l51.4-15.71c1.75-.53,2.88-2.26,2.66-4.08-1.94-15.7-5.84-30.79-11.47-45-.72-1.82-2.73-2.76-4.6-2.2l-55.15,16.85c-3.67,1.12-6.45-3.36-3.84-6.18l40.91-44.29c1.23-1.33,1.36-3.36.3-4.82-9.4-12.89-20.44-24.5-32.8-34.53-1.53-1.24-3.78-1.06-5.12.39l-45.12,48.86c-2.57,2.79-7.17.43-6.43-3.3l13.46-68.74c.35-1.77-.59-3.56-2.25-4.25-12.24-5.05-25.14-8.83-38.55-11.11-2.84-.48-5.71-.88-8.6-1.22-1.94-.23-3.72,1.1-4.1,3.03l-14.31,73.1c-.79,4.03-6.5,4.08-7.36.06l-15.56-73.07c-.41-1.9-2.19-3.2-4.11-2.96-2.79.34-5.55.74-8.3,1.22-13.49,2.37-26.45,6.25-38.75,11.42-1.67.7-2.59,2.52-2.21,4.3l14.74,69.19c.79,3.72-3.76,6.15-6.38,3.41l-46.7-48.92c-1.36-1.42-3.59-1.58-5.1-.33-12.26,10.14-23.18,21.84-32.46,34.82-1.06,1.48-.89,3.52.36,4.83l42.64,44.66c2.66,2.78-.05,7.31-3.74,6.25l-57.02-16.39c-1.87-.54-3.86.44-4.55,2.26-5.43,14.28-9.16,29.4-10.9,45.13-.2,1.83.96,3.55,2.72,4.05l53.42,15.36c3.71,1.07,3.6,6.4-.16,7.3l-52.8,12.7c-1.86.45-3.11,2.23-2.88,4.14,1.95,15.66,5.86,30.69,11.47,44.87.69,1.74,2.57,2.7,4.38,2.26l5.16-1.24c.25-.06.5-.15.73-.26,67.11-31.02,122.29-83.67,156.57-149.17,1.41-2.7,5.19-2.72,6.64-.05,34.66,64.05,89.44,115.47,155.77,145.8.25.11.51.2.78.26l6.7,1.49c1.82.41,3.69-.58,4.34-2.34,5.34-14.27,8.97-29.38,10.62-45.08.2-1.91-1.08-3.67-2.95-4.08Z"/>
      <path class="cls-1" d="M335.03,276.54c-.69-.25-1.38-.5-2.08-.74-29.99-10.87-61.93-17.49-95.21-19.26h-.03c-.88-.06-1.79-.09-2.66-.16-.84,0-2.5-.04-3.32.07-31.32.53-67.02,17.89-67.02,43.4,0,12.8,24.39,36.72,40.02,56.66,2.57,3.41,5.18,6.81,7.81,10.13.04.06.09.11.13.17.06.08.12.15.18.22,8.55,10.81,17.15,20.77,24.15,27.41,0,0,12.11,12.15,26.26,12.95,1.68.25,3.43-.44,4.42-1.99l69.6-122.13c1.57-2.45.47-5.74-2.26-6.73Z"/>
      <path class="cls-1" d="M111.93,313.47l-1.15-2.1c-5.05-5.23-9.83-16.2-10.05-24.02v-.85c0-.85.03-1.7.09-2.55.25-2.81.85-5.48,1.79-8.04,2.82-7.53,8.56-13.65,15.83-16.96.16-.06.31-.13.47-.19,1.22-.54,2.48-.98,3.79-1.36-21.03,2.05-41.49,6.08-61.2,11.91-.85.22-1.69.47-2.54.72-7.05,2.14-14.01,4.51-20.87,7.09-1.54.58-3.76,1.46-5.73,2.25-2.34.94-3.24,3.78-1.89,5.92l118.43,184.7,4.08,6.42c.1.16.21.31.32.45.73.9,1.52,1.77,2.36,2.59,6.02,5.93,14.23,9.55,23.29,9.55,18.11,0,32.87-14.56,33.38-32.69v-.95c0-.98-.03-1.92-.13-2.84-.31-4.13-1.41-8.04-3.1-11.6-.75-1.42-97.47-128.19-98.31-129.57"/>
    </g>
  </g>
</svg>